<?xml version="1.0" encoding="utf-8"?>
<!-- Generator: Adobe Illustrator 25.3.1, SVG Export Plug-In . SVG Version: 6.00 Build 0)  -->
<svg version="1.1" id="Warstwa_1" xmlns="http://www.w3.org/2000/svg" xmlns:xlink="http://www.w3.org/1999/xlink" x="0px" y="0px"
	 viewBox="0 0 595.3 141.7" style="enable-background:new 0 0 595.3 141.7;" xml:space="preserve">
<style type="text/css">
	.st0{fill-rule:evenodd;clip-rule:evenodd;fill:#1D436F;}
</style>
<g>
	<path class="st0" d="M535.2,19.2h-15.9l-18,56.2h15.9l4.9-15.3h1.8c2.3,0,4.4,1.2,3.1,5.3l-3.2,10h15.4l3.4-10.5
		c1.8-5.6,1.8-10.3-5.2-12.5c3-0.5,5.4-3.2,8.3-7.2l7.2-9.8l-14.8,0.1c-3,4-6.9,12-11.5,12c-0.3,0-0.3,0.7-0.6,0.6L535.2,19.2z"/>
	<path class="st0" d="M487.7,35.8h-15.3l-8.2,23.4c-3.6,10.3,0.9,17.3,12.8,17.5c12.8,0,21.8-9.5,24.5-17.1l8.3-23.7h-15.7
		l-6.7,20.5c-1.2,3.7-2.8,5.9-5.4,5.9c-2.4,0-2.2-2-1-5.7L487.7,35.8z"/>
	<path class="st0" d="M387.1,76.4h0.8c12.4,0,24.5-11.2,28.3-22.7c2.2-9-2.4-19.3-14.8-19.3c-12.3,0-24.1,10-27.8,19.9
		C369.8,65.6,374.9,75.7,387.1,76.4 M396.2,49.5c2.2,0,4.9,1.7,3.9,5.4c-1.2,3.6-4.4,6-7.3,6c-2.7,0-5-1.9-3.7-5.7
		C390.2,51.9,393.4,49.8,396.2,49.5"/>
	<path class="st0" d="M362.9,36h-14.5l-12.6,39.5h15.4l7.2-20.3c1.7-4.8,8.4-6.8,16.4-7.1l5-12.8c-1.7-0.3-4.7-0.4-6.7-0.1
		c-5.2,0.7-9.7,3.4-12.2,7.5L362.9,36z"/>
	<path class="st0" d="M301,92.2l10.6-33c2-6.3,4.3-10.2,8.8-10.2c4.8,0,6.2,3.1,5.5,6.2c-0.6,2.7-2.3,5.5-7,6.3
		c-1.6,0.3-2.7,0.3-4.5-0.3l-5,14.8c1.7,0.5,3.8,0.8,5.7,0.8c11.3,0,21.7-8.9,25.4-20.6c0.6-1.8,0.9-3.3,1.1-4.9
		c0.8-6.6-2.3-16-16.4-16.4c-6.7-0.2-12.6,1.6-17.8,5.8c-4,3.3-7.8,8.4-9.5,13.5l-12.6,37.9H301z"/>
	<path class="st0" d="M457.3,19.3l-10.7,32.9c-2.1,6.3-4.5,9.5-9,9.5c-4.8,0-5.9-2.2-5.2-5.4c0.6-2.7,2.3-5.5,7.1-6.3
		c1.6-0.3,2.9-0.7,4.7-0.1l5-14.6c-1.7-0.5-4-0.6-5.9-0.6c-11.3,0-21.7,8.9-25.4,20.6c-0.6,1.8-0.9,3.3-1.1,4.9
		c-0.8,6.6,2.3,16,16.4,16.4c11.9,0.3,23-8.1,27-19.7l12.9-37.5H457.3z"/>
	<polygon class="st0" points="287,75.4 305,19.2 289.6,19.2 271.6,75.4 	"/>
	<path class="st0" d="M266.1,75.4l7-21.7c6.4-20-22.9-22.8-35.2-11c-6.6,6.3-10.7,14.7-9.3,23c1.1,6.3,5.5,10.7,13,10.7
		c3.4,0,4.6-0.4,6.4-1.3l4.7-14.1c-2,0.8-5.5,0.9-7.3-0.5c-2.9-2.3-0.7-7.2,1.9-9c2.2-1.5,8-2.9,9.6-0.5c0.9,1.3,0.5,3.4-0.1,5.5
		l-6.1,19.1H266.1z"/>
	<path class="st0" d="M228.7,22.9h-15.2l-12.5,39.5c-2.4,7.7,2.7,13,8.8,13h11.5l3.8-11.7c-1.1,0-2.4,0.1-3.8,0.1
		c-2.9,0-5.5-0.7-4-5.3l3.4-10.7h9.3l3.7-11.7h-9.1L228.7,22.9z"/>
	<path class="st0" d="M574.5,22.9h-15.2l-12.5,39.5c-2.4,7.7,2.7,13,8.8,13h11.5l3.8-11.7c-1.1,0-2.4,0.1-3.8,0.1
		c-2.9,0-5.5-0.7-4-5.3l3.4-10.7h9.3l3.8-11.7h-9.1L574.5,22.9z"/>
	<path class="st0" d="M208.9,19.2l-17.5,0c-7.6,0-14.8,2.5-19.5,8.6c-3.2,4.1-4.9,10.6-2.7,15.6c1.1,2.5,3.2,4.7,5.7,7
		c1.9,1.8,4.1,4.2,3.7,6.5c-0.2,1.2-0.6,3.1-3.8,3.1h-14.9l-4.3,15.4h16.9c7.4,0,14.2-2,19.2-6.2c7.3-6.1,10.5-16.3,2.7-24
		c-1.4-1.4-3.3-2.9-5.5-4.6c-3.5-2.7-2.8-5.9,4.8-5.9l10.1-0.1L208.9,19.2z"/>
	<path class="st0" d="M167,119.1c0,0.2,0,0.3,0,0.4c0,0.1,0,0.2-0.1,0.3c0,0.1-0.1,0.1-0.1,0.2c-0.1,0-0.1,0-0.2,0h-9.1
		c-0.2,0-0.4-0.1-0.5-0.2c-0.1-0.1-0.2-0.3-0.2-0.6v-0.4c0-0.1,0-0.2,0-0.3c0-0.1,0-0.2,0.1-0.3c0-0.1,0.1-0.2,0.2-0.3
		c0.1-0.1,0.2-0.3,0.3-0.4l7.1-11.1h-7c-0.1,0-0.1,0-0.2,0c-0.1,0-0.1-0.1-0.1-0.1c0-0.1-0.1-0.2-0.1-0.3c0-0.1,0-0.2,0-0.4
		c0-0.2,0-0.3,0-0.4c0-0.1,0-0.2,0.1-0.3c0-0.1,0.1-0.1,0.1-0.2c0.1,0,0.1,0,0.2,0h8.5c0.2,0,0.4,0.1,0.5,0.2
		c0.1,0.1,0.2,0.3,0.2,0.6v0.5c0,0.1,0,0.2,0,0.3c0,0.1,0,0.2-0.1,0.3c0,0.1-0.1,0.2-0.2,0.3c-0.1,0.1-0.2,0.3-0.3,0.4l-7,11h7.5
		c0.1,0,0.2,0.1,0.3,0.2C166.9,118.6,167,118.8,167,119.1 M187,119.2c0.1,0.2,0.1,0.3,0.1,0.4c0,0.1,0,0.2-0.1,0.2
		c-0.1,0.1-0.2,0.1-0.3,0.1c-0.1,0-0.3,0-0.6,0c-0.2,0-0.4,0-0.6,0c-0.1,0-0.3,0-0.3-0.1c-0.1,0-0.1-0.1-0.2-0.1
		c0,0-0.1-0.1-0.1-0.2l-1.3-3.7h-6.4l-1.3,3.7c0,0.1-0.1,0.1-0.1,0.2c0,0.1-0.1,0.1-0.2,0.1c-0.1,0-0.2,0.1-0.3,0.1
		c-0.1,0-0.3,0-0.5,0c-0.2,0-0.4,0-0.6,0c-0.1,0-0.3-0.1-0.3-0.1c-0.1-0.1-0.1-0.1-0.1-0.2c0-0.1,0-0.2,0.1-0.4l5.1-14.3
		c0-0.1,0.1-0.2,0.1-0.2c0.1-0.1,0.1-0.1,0.2-0.1c0.1,0,0.2-0.1,0.4-0.1c0.2,0,0.3,0,0.6,0c0.3,0,0.5,0,0.6,0c0.2,0,0.3,0,0.4,0.1
		c0.1,0,0.2,0.1,0.2,0.1c0.1,0.1,0.1,0.1,0.1,0.2L187,119.2z M180.4,106.6L180.4,106.6l-2.7,7.6h5.3L180.4,106.6z M212.3,119.6
		c0,0.1,0,0.1,0,0.2c0,0-0.1,0.1-0.2,0.1c-0.1,0-0.2,0-0.3,0.1c-0.1,0-0.3,0-0.5,0c-0.2,0-0.3,0-0.5,0c-0.1,0-0.2,0-0.3-0.1
		c-0.1,0-0.1-0.1-0.2-0.1c0,0,0-0.1,0-0.2v-13.4h0l-5.4,13.4c0,0.1-0.1,0.1-0.1,0.1c0,0-0.1,0.1-0.2,0.1c-0.1,0-0.2,0-0.3,0.1
		c-0.1,0-0.3,0-0.4,0c-0.2,0-0.3,0-0.4,0c-0.1,0-0.2,0-0.3-0.1c-0.1,0-0.1-0.1-0.2-0.1c0,0-0.1-0.1-0.1-0.1l-5.2-13.4h0v13.4
		c0,0.1,0,0.1,0,0.2c0,0-0.1,0.1-0.2,0.1c-0.1,0-0.2,0-0.3,0.1c-0.1,0-0.3,0-0.5,0c-0.2,0-0.4,0-0.5,0c-0.1,0-0.2,0-0.3-0.1
		c-0.1,0-0.1-0.1-0.2-0.1c0,0,0-0.1,0-0.2v-14.1c0-0.3,0.1-0.6,0.3-0.7c0.2-0.1,0.4-0.2,0.6-0.2h1.3c0.3,0,0.5,0,0.7,0.1
		c0.2,0,0.4,0.1,0.5,0.2c0.1,0.1,0.3,0.2,0.4,0.4c0.1,0.2,0.2,0.3,0.3,0.6l4.4,11.1h0.1l4.6-11.1c0.1-0.2,0.2-0.4,0.3-0.6
		c0.1-0.2,0.2-0.3,0.3-0.4c0.1-0.1,0.3-0.2,0.4-0.2c0.2,0,0.3-0.1,0.5-0.1h1.3c0.1,0,0.2,0,0.3,0.1c0.1,0,0.2,0.1,0.3,0.2
		c0.1,0.1,0.1,0.2,0.2,0.3c0,0.1,0.1,0.3,0.1,0.4V119.6z M235.4,112.1c0,1.2-0.1,2.4-0.4,3.4c-0.3,1-0.7,1.8-1.3,2.5
		c-0.6,0.7-1.3,1.2-2.2,1.6c-0.9,0.4-1.9,0.6-3.1,0.6c-1.2,0-2.2-0.2-3-0.5c-0.8-0.3-1.5-0.8-2.1-1.5c-0.6-0.7-1-1.5-1.2-2.4
		c-0.3-1-0.4-2.1-0.4-3.4c0-1.2,0.1-2.3,0.4-3.3c0.3-1,0.7-1.8,1.3-2.5c0.6-0.7,1.3-1.2,2.2-1.6c0.9-0.4,1.9-0.6,3.1-0.6
		c1.1,0,2.1,0.2,3,0.5c0.8,0.3,1.5,0.8,2.1,1.5c0.6,0.7,1,1.5,1.2,2.4C235.2,109.8,235.4,110.9,235.4,112.1 M233.2,112.2
		c0-0.9-0.1-1.7-0.2-2.4c-0.2-0.7-0.4-1.4-0.8-1.9c-0.4-0.5-0.8-1-1.4-1.3c-0.6-0.3-1.3-0.5-2.2-0.5c-0.9,0-1.6,0.2-2.2,0.5
		c-0.6,0.3-1.1,0.8-1.5,1.3c-0.4,0.6-0.6,1.2-0.8,1.9c-0.2,0.7-0.2,1.5-0.2,2.3c0,0.9,0.1,1.7,0.2,2.5c0.1,0.8,0.4,1.4,0.8,2
		c0.4,0.5,0.8,1,1.4,1.3c0.6,0.3,1.3,0.5,2.2,0.5c0.9,0,1.6-0.2,2.3-0.5c0.6-0.3,1.1-0.8,1.5-1.3c0.4-0.6,0.6-1.2,0.8-2
		C233.1,113.9,233.2,113.1,233.2,112.2 M253,115.6c0,0.7-0.1,1.4-0.4,1.9c-0.3,0.6-0.6,1-1.1,1.4c-0.5,0.4-1,0.7-1.7,0.9
		c-0.6,0.2-1.3,0.3-2.1,0.3c-0.5,0-1,0-1.4-0.1c-0.4-0.1-0.8-0.2-1.2-0.3c-0.3-0.1-0.6-0.3-0.9-0.4c-0.2-0.1-0.4-0.3-0.5-0.3
		c-0.1-0.1-0.2-0.2-0.2-0.4c0-0.1-0.1-0.3-0.1-0.6c0-0.2,0-0.3,0-0.4c0-0.1,0-0.2,0.1-0.3c0-0.1,0.1-0.1,0.1-0.2c0.1,0,0.1,0,0.2,0
		c0.1,0,0.3,0.1,0.5,0.2c0.2,0.1,0.5,0.3,0.8,0.4c0.3,0.2,0.7,0.3,1.1,0.4c0.4,0.1,1,0.2,1.5,0.2c0.4,0,0.9-0.1,1.2-0.2
		c0.4-0.1,0.7-0.3,0.9-0.5c0.3-0.2,0.5-0.5,0.6-0.8c0.1-0.3,0.2-0.7,0.2-1.1c0-0.4-0.1-0.8-0.3-1.1c-0.2-0.3-0.5-0.6-0.8-0.8
		c-0.3-0.2-0.7-0.4-1.1-0.6c-0.4-0.2-0.8-0.4-1.3-0.6c-0.4-0.2-0.9-0.4-1.3-0.7c-0.4-0.2-0.8-0.5-1.1-0.9c-0.3-0.3-0.6-0.7-0.8-1.2
		c-0.2-0.4-0.3-1-0.3-1.6c0-0.6,0.1-1.2,0.3-1.7c0.2-0.5,0.6-0.9,1-1.3c0.4-0.3,0.9-0.6,1.5-0.8c0.6-0.2,1.2-0.3,1.9-0.3
		c0.3,0,0.7,0,1,0.1c0.3,0.1,0.7,0.1,1,0.2c0.3,0.1,0.6,0.2,0.8,0.3c0.2,0.1,0.4,0.2,0.5,0.3c0.1,0.1,0.1,0.1,0.1,0.2
		c0,0,0,0.1,0.1,0.2c0,0.1,0,0.1,0,0.2c0,0.1,0,0.2,0,0.4c0,0.1,0,0.3,0,0.4c0,0.1,0,0.2-0.1,0.3c0,0.1-0.1,0.1-0.1,0.2
		c0,0-0.1,0.1-0.1,0.1c-0.1,0-0.2-0.1-0.4-0.2c-0.2-0.1-0.4-0.2-0.7-0.4c-0.3-0.1-0.6-0.3-1-0.4c-0.4-0.1-0.8-0.2-1.2-0.2
		c-0.4,0-0.8,0.1-1.1,0.2c-0.3,0.1-0.6,0.3-0.8,0.5c-0.2,0.2-0.4,0.4-0.5,0.7c-0.1,0.3-0.2,0.5-0.2,0.8c0,0.4,0.1,0.8,0.3,1.1
		c0.2,0.3,0.5,0.6,0.8,0.8c0.3,0.2,0.7,0.5,1.1,0.7c0.4,0.2,0.8,0.4,1.3,0.6c0.4,0.2,0.9,0.4,1.3,0.7c0.4,0.2,0.8,0.5,1.1,0.9
		c0.3,0.3,0.6,0.7,0.8,1.2C252.9,114.5,253,115,253,115.6 M249.7,100.4c0.1-0.1,0.2-0.2,0.3-0.2c0.1-0.1,0.2-0.1,0.3-0.1
		c0.1,0,0.2-0.1,0.4-0.1c0.1,0,0.3,0,0.5,0c0.2,0,0.4,0,0.6,0.1c0.1,0,0.2,0.1,0.3,0.1c0.1,0.1,0.1,0.1,0.1,0.2
		c0,0.1-0.1,0.1-0.1,0.2l-2.7,2.5c-0.1,0.1-0.2,0.1-0.2,0.2c-0.1,0-0.1,0.1-0.2,0.1c-0.1,0-0.2,0-0.3,0.1c-0.1,0-0.3,0-0.4,0
		c-0.2,0-0.3,0-0.4,0c-0.1,0-0.2-0.1-0.2-0.1c0,0-0.1-0.1,0-0.2c0-0.1,0.1-0.1,0.1-0.2L249.7,100.4z M272.2,117.8c0,0.1,0,0.2,0,0.3
		c0,0.1,0,0.2,0,0.2c0,0.1,0,0.1-0.1,0.2c0,0.1-0.1,0.1-0.2,0.2c-0.1,0.1-0.2,0.2-0.5,0.4c-0.3,0.2-0.6,0.3-0.9,0.5
		c-0.4,0.2-0.8,0.3-1.3,0.4c-0.5,0.1-1,0.2-1.6,0.2c-1,0-1.9-0.2-2.7-0.5c-0.8-0.3-1.5-0.8-2.1-1.5c-0.6-0.6-1-1.4-1.3-2.4
		c-0.3-1-0.5-2.1-0.5-3.3c0-1.3,0.2-2.4,0.5-3.4c0.3-1,0.8-1.8,1.4-2.5c0.6-0.7,1.3-1.2,2.1-1.6c0.8-0.4,1.7-0.5,2.7-0.5
		c0.4,0,0.9,0,1.3,0.1c0.4,0.1,0.8,0.2,1.2,0.3c0.4,0.1,0.7,0.3,1,0.4c0.3,0.2,0.5,0.3,0.6,0.4c0.1,0.1,0.2,0.2,0.2,0.2
		c0,0,0.1,0.1,0.1,0.2c0,0.1,0,0.2,0,0.3c0,0.1,0,0.2,0,0.4c0,0.2,0,0.3,0,0.4c0,0.1,0,0.2-0.1,0.3c0,0.1-0.1,0.1-0.1,0.2
		c0,0-0.1,0-0.2,0c-0.1,0-0.3-0.1-0.5-0.2c-0.2-0.2-0.5-0.3-0.8-0.5c-0.3-0.2-0.7-0.4-1.1-0.5c-0.5-0.2-1-0.2-1.6-0.2
		c-0.7,0-1.3,0.1-1.9,0.4c-0.6,0.3-1,0.7-1.4,1.2c-0.4,0.5-0.7,1.2-0.9,1.9c-0.2,0.8-0.3,1.6-0.3,2.6c0,1,0.1,1.8,0.3,2.6
		c0.2,0.8,0.5,1.4,0.9,1.9c0.4,0.5,0.9,0.9,1.4,1.1c0.6,0.3,1.2,0.4,1.9,0.4c0.6,0,1.1-0.1,1.6-0.2c0.5-0.1,0.8-0.3,1.2-0.5
		c0.3-0.2,0.6-0.4,0.8-0.5c0.2-0.1,0.4-0.2,0.5-0.2c0.1,0,0.1,0,0.1,0c0,0,0.1,0.1,0.1,0.1c0,0.1,0,0.2,0.1,0.3
		C272.2,117.5,272.2,117.6,272.2,117.8 M268.5,100.4c0.1-0.1,0.2-0.2,0.3-0.2c0.1-0.1,0.2-0.1,0.3-0.1c0.1,0,0.2-0.1,0.4-0.1
		c0.1,0,0.3,0,0.5,0c0.2,0,0.4,0,0.6,0.1c0.1,0,0.2,0.1,0.3,0.1c0.1,0.1,0.1,0.1,0.1,0.2c0,0.1-0.1,0.1-0.1,0.2l-2.7,2.5
		c-0.1,0.1-0.2,0.1-0.2,0.2c-0.1,0-0.1,0.1-0.2,0.1c-0.1,0-0.2,0-0.3,0.1c-0.1,0-0.3,0-0.4,0c-0.2,0-0.3,0-0.4,0
		c-0.1,0-0.2-0.1-0.2-0.1c0,0-0.1-0.1,0-0.2c0-0.1,0.1-0.1,0.1-0.2L268.5,100.4z M294.8,115.6c0,0.7-0.1,1.4-0.4,1.9
		c-0.3,0.6-0.6,1-1.1,1.4c-0.5,0.4-1,0.7-1.7,0.9c-0.6,0.2-1.3,0.3-2.1,0.3c-0.5,0-1,0-1.4-0.1c-0.4-0.1-0.8-0.2-1.2-0.3
		c-0.3-0.1-0.6-0.3-0.9-0.4c-0.2-0.1-0.4-0.3-0.5-0.3c-0.1-0.1-0.2-0.2-0.2-0.4c0-0.1-0.1-0.3-0.1-0.6c0-0.2,0-0.3,0-0.4
		c0-0.1,0-0.2,0.1-0.3c0-0.1,0.1-0.1,0.1-0.2c0,0,0.1,0,0.2,0c0.1,0,0.3,0.1,0.5,0.2c0.2,0.1,0.5,0.3,0.8,0.4
		c0.3,0.2,0.7,0.3,1.1,0.4c0.4,0.1,1,0.2,1.5,0.2c0.4,0,0.8-0.1,1.2-0.2c0.4-0.1,0.7-0.3,0.9-0.5c0.3-0.2,0.5-0.5,0.6-0.8
		c0.1-0.3,0.2-0.7,0.2-1.1c0-0.4-0.1-0.8-0.3-1.1c-0.2-0.3-0.5-0.6-0.8-0.8c-0.3-0.2-0.7-0.4-1.1-0.6c-0.4-0.2-0.8-0.4-1.3-0.6
		c-0.4-0.2-0.9-0.4-1.3-0.7c-0.4-0.2-0.8-0.5-1.1-0.9c-0.3-0.3-0.6-0.7-0.8-1.2c-0.2-0.4-0.3-1-0.3-1.6c0-0.6,0.1-1.2,0.3-1.7
		c0.2-0.5,0.6-0.9,1-1.3c0.4-0.3,0.9-0.6,1.5-0.8c0.6-0.2,1.2-0.3,1.9-0.3c0.3,0,0.7,0,1,0.1c0.3,0.1,0.7,0.1,1,0.2
		c0.3,0.1,0.6,0.2,0.8,0.3c0.2,0.1,0.4,0.2,0.5,0.3c0.1,0.1,0.1,0.1,0.1,0.2c0,0,0,0.1,0.1,0.2c0,0.1,0,0.1,0,0.2c0,0.1,0,0.2,0,0.4
		c0,0.1,0,0.3,0,0.4c0,0.1,0,0.2-0.1,0.3c0,0.1-0.1,0.1-0.1,0.2c0,0-0.1,0.1-0.2,0.1c-0.1,0-0.2-0.1-0.4-0.2
		c-0.2-0.1-0.4-0.2-0.7-0.4c-0.3-0.1-0.6-0.3-1-0.4c-0.4-0.1-0.8-0.2-1.2-0.2c-0.4,0-0.8,0.1-1.1,0.2c-0.3,0.1-0.6,0.3-0.8,0.5
		c-0.2,0.2-0.4,0.4-0.5,0.7c-0.1,0.3-0.2,0.5-0.2,0.8c0,0.4,0.1,0.8,0.3,1.1c0.2,0.3,0.5,0.6,0.8,0.8c0.3,0.2,0.7,0.5,1.1,0.7
		c0.4,0.2,0.8,0.4,1.3,0.6c0.4,0.2,0.9,0.4,1.3,0.7c0.4,0.2,0.8,0.5,1.1,0.9c0.3,0.3,0.6,0.7,0.8,1.2
		C294.6,114.5,294.8,115,294.8,115.6 M313.4,114.1c0,0.9-0.1,1.8-0.3,2.5c-0.2,0.7-0.5,1.4-0.9,1.9c-0.4,0.5-0.9,0.9-1.4,1.2
		c-0.6,0.3-1.2,0.4-2,0.4c-0.3,0-0.6,0-0.9-0.1c-0.3-0.1-0.5-0.2-0.8-0.3c-0.3-0.1-0.5-0.3-0.8-0.5c-0.3-0.2-0.5-0.4-0.8-0.7v5.3
		c0,0.1,0,0.1,0,0.2c0,0-0.1,0.1-0.2,0.1c-0.1,0-0.2,0-0.3,0.1c-0.1,0-0.3,0-0.5,0c-0.2,0-0.4,0-0.5,0c-0.1,0-0.2,0-0.3-0.1
		c-0.1,0-0.1-0.1-0.2-0.1c0,0,0-0.1,0-0.2V109c0-0.1,0-0.1,0-0.2c0,0,0.1-0.1,0.1-0.1c0.1,0,0.2-0.1,0.3-0.1c0.1,0,0.2,0,0.4,0
		c0.2,0,0.3,0,0.4,0c0.1,0,0.2,0,0.3,0.1c0.1,0,0.1,0.1,0.1,0.1c0,0,0,0.1,0,0.2v1.4c0.3-0.3,0.6-0.6,0.9-0.9
		c0.3-0.2,0.6-0.4,0.9-0.6c0.3-0.2,0.6-0.3,0.9-0.4c0.3-0.1,0.7-0.1,1-0.1c0.8,0,1.4,0.1,2,0.4c0.5,0.3,1,0.7,1.3,1.2
		c0.3,0.5,0.6,1.1,0.8,1.8C313.3,112.6,313.4,113.4,313.4,114.1 M311.3,114.4c0-0.5,0-1.1-0.1-1.6c-0.1-0.5-0.2-1-0.4-1.4
		c-0.2-0.4-0.5-0.7-0.8-1c-0.3-0.2-0.8-0.4-1.3-0.4c-0.3,0-0.5,0-0.7,0.1c-0.2,0.1-0.5,0.2-0.8,0.4c-0.2,0.2-0.5,0.4-0.8,0.6
		c-0.3,0.3-0.6,0.6-0.9,1v4.2c0.5,0.7,1.1,1.2,1.5,1.5c0.5,0.3,1,0.5,1.5,0.5c0.5,0,0.9-0.1,1.3-0.4c0.4-0.2,0.6-0.6,0.9-0.9
		c0.2-0.4,0.4-0.8,0.5-1.3C311.3,115.4,311.3,114.9,311.3,114.4 M324.9,118.7c0,0.6-0.1,0.9-0.3,1.1c-0.2,0.2-0.5,0.3-1,0.3
		c-0.5,0-0.8-0.1-1-0.3c-0.2-0.2-0.3-0.5-0.3-1.1c0-0.6,0.1-0.9,0.3-1.1c0.2-0.2,0.5-0.3,1-0.3c0.5,0,0.8,0.1,1,0.3
		C324.8,117.7,324.9,118.1,324.9,118.7 M346.9,119.1c0,0.2,0,0.3,0,0.4c0,0.1-0.1,0.2-0.1,0.3c0,0.1-0.1,0.1-0.1,0.1
		c-0.1,0-0.1,0-0.2,0h-6.6c-0.2,0-0.3-0.1-0.4-0.2c-0.1-0.1-0.2-0.3-0.2-0.6v-0.4c0-0.1,0-0.2,0-0.3c0-0.1,0-0.2,0.1-0.3
		c0-0.1,0.1-0.2,0.1-0.3c0.1-0.1,0.1-0.2,0.2-0.3l4.7-7.3h-4.6c-0.1,0-0.2-0.1-0.3-0.2c-0.1-0.1-0.1-0.3-0.1-0.6c0-0.1,0-0.3,0-0.4
		c0-0.1,0-0.2,0.1-0.3c0-0.1,0.1-0.1,0.1-0.1c0.1,0,0.1,0,0.2,0h6.1c0.1,0,0.2,0,0.2,0c0.1,0,0.1,0.1,0.2,0.1c0,0.1,0.1,0.1,0.1,0.2
		c0,0.1,0,0.2,0,0.3v0.4c0,0.1,0,0.2,0,0.3c0,0.1,0,0.2-0.1,0.3c0,0.1-0.1,0.2-0.1,0.3c-0.1,0.1-0.1,0.2-0.2,0.3l-4.7,7.3h5
		c0.1,0,0.1,0,0.2,0c0,0,0.1,0.1,0.1,0.1c0,0.1,0.1,0.2,0.1,0.3C346.9,118.8,346.9,119,346.9,119.1 M371.2,114.2
		c0,0.9-0.1,1.7-0.3,2.4c-0.2,0.7-0.6,1.4-1,1.9c-0.5,0.5-1,0.9-1.7,1.2c-0.7,0.3-1.5,0.4-2.4,0.4c-0.9,0-1.6-0.1-2.3-0.4
		c-0.7-0.3-1.2-0.6-1.6-1.1c-0.4-0.5-0.8-1.1-1-1.8c-0.2-0.7-0.3-1.5-0.3-2.4c0-0.9,0.1-1.7,0.3-2.4c0.2-0.7,0.6-1.4,1-1.9
		c0.5-0.5,1-0.9,1.7-1.2c0.7-0.3,1.5-0.4,2.4-0.4c0.9,0,1.6,0.1,2.3,0.4c0.7,0.3,1.2,0.6,1.6,1.1c0.4,0.5,0.8,1.1,1,1.8
		C371.1,112.5,371.2,113.3,371.2,114.2 M369.2,114.3c0-0.6-0.1-1.1-0.2-1.6c-0.1-0.5-0.3-1-0.5-1.4c-0.2-0.4-0.6-0.7-1-0.9
		c-0.4-0.2-0.9-0.3-1.6-0.3c-0.6,0-1.1,0.1-1.5,0.3c-0.4,0.2-0.8,0.5-1,0.9c-0.3,0.4-0.5,0.8-0.6,1.3c-0.1,0.5-0.2,1.1-0.2,1.7
		c0,0.6,0.1,1.1,0.2,1.7c0.1,0.5,0.3,1,0.5,1.3c0.3,0.4,0.6,0.7,1,0.9c0.4,0.2,0.9,0.3,1.6,0.3c0.6,0,1.1-0.1,1.5-0.3
		c0.4-0.2,0.8-0.5,1-0.9c0.3-0.4,0.5-0.8,0.6-1.3C369.1,115.5,369.2,114.9,369.2,114.3 M382.7,118.7c0,0.6-0.1,0.9-0.3,1.1
		c-0.2,0.2-0.5,0.3-1,0.3c-0.5,0-0.8-0.1-1-0.3c-0.2-0.2-0.3-0.5-0.3-1.1c0-0.6,0.1-0.9,0.3-1.1c0.2-0.2,0.5-0.3,1-0.3
		c0.5,0,0.8,0.1,1,0.3C382.7,117.7,382.7,118.1,382.7,118.7 M402.4,114.2c0,0.9-0.1,1.7-0.3,2.4c-0.2,0.7-0.6,1.4-1,1.9
		c-0.5,0.5-1,0.9-1.7,1.2c-0.7,0.3-1.5,0.4-2.4,0.4c-0.9,0-1.6-0.1-2.3-0.4c-0.6-0.3-1.2-0.6-1.6-1.1c-0.4-0.5-0.8-1.1-1-1.8
		c-0.2-0.7-0.3-1.5-0.3-2.4c0-0.9,0.1-1.7,0.3-2.4c0.2-0.7,0.6-1.4,1-1.9c0.5-0.5,1-0.9,1.7-1.2c0.7-0.3,1.5-0.4,2.4-0.4
		c0.9,0,1.6,0.1,2.3,0.4c0.7,0.3,1.2,0.6,1.6,1.1c0.4,0.5,0.8,1.1,1,1.8C402.3,112.5,402.4,113.3,402.4,114.2 M400.3,114.3
		c0-0.6-0.1-1.1-0.2-1.6c-0.1-0.5-0.3-1-0.5-1.4c-0.2-0.4-0.6-0.7-1-0.9c-0.4-0.2-0.9-0.3-1.6-0.3c-0.6,0-1.1,0.1-1.5,0.3
		c-0.4,0.2-0.8,0.5-1,0.9c-0.3,0.4-0.5,0.8-0.6,1.3c-0.1,0.5-0.2,1.1-0.2,1.7c0,0.6,0.1,1.1,0.2,1.7c0.1,0.5,0.3,1,0.5,1.3
		c0.2,0.4,0.6,0.7,1,0.9c0.4,0.2,0.9,0.3,1.6,0.3c0.6,0,1.1-0.1,1.5-0.3c0.4-0.2,0.8-0.5,1-0.9c0.3-0.4,0.5-0.8,0.6-1.3
		C400.3,115.5,400.3,114.9,400.3,114.3 M413.9,118.7c0,0.6-0.1,0.9-0.3,1.1c-0.2,0.2-0.5,0.3-1,0.3c-0.5,0-0.8-0.1-1-0.3
		c-0.2-0.2-0.3-0.5-0.3-1.1c0-0.6,0.1-0.9,0.3-1.1c0.2-0.2,0.5-0.3,1-0.3c0.5,0,0.8,0.1,1,0.3C413.8,117.7,413.9,118.1,413.9,118.7"
		/>
	<path class="st0" d="M30.3,17.9h85.1c3,0,5.7,1.2,7.7,3.2c2,2,3.2,4.7,3.2,7.7v85.6c0,3-1.2,5.7-3.2,7.7c-2,2-4.7,3.2-7.7,3.2H30.3
		c-3,0-5.7-1.2-7.7-3.2c-2-2-3.2-4.7-3.2-7.7V28.8c0-3,1.2-5.7,3.2-7.7C24.6,19.2,27.3,17.9,30.3,17.9 M115.3,21.4H30.3
		c-2,0-3.9,0.8-5.3,2.2c-1.3,1.3-2.2,3.2-2.2,5.3v85.6c0,2,0.8,3.9,2.2,5.2c1.3,1.3,3.2,2.2,5.3,2.2h85.1c2,0,3.9-0.8,5.2-2.2
		c1.3-1.3,2.2-3.2,2.2-5.2V28.8c0-2-0.8-3.9-2.2-5.3C119.2,22.2,117.4,21.4,115.3,21.4"/>
	<path class="st0" d="M104.7,73c-2.2,19.4-18.6,34.6-38.6,34.8l0-12.8l0.5,0.3c2.1,0.5,4.6,0.9,6.6,0.9c8.9,0,16.9-4.6,20.9-11.9
		c2.1-3.3,3.4-7.2,3.7-11.4H104.7z M48.1,103.8C36.4,98,28,86.5,26.5,73h21.6V103.8z"/>
	<path class="st0" d="M41.2,70c2.2-19.6,18.9-34.9,39.1-34.9c20.2,0,36.9,15.2,39.1,34.9H97.9C97.3,56.8,86.3,46.3,73,46.3
		c-13.4,0-24.3,10.5-24.9,23.7H41.2z"/>
	<path class="st0" d="M63.5,107.9l0-16.9c1.2,0.6,2.4,1,3.7,1.3v0.1c1.8,0.5,4,0.8,5.8,0.8c7.8,0,14.8-4,18.3-10.4
		c2.1-3.3,3.3-7.3,3.3-11.5c0-12-9.8-21.8-21.8-21.8c-12,0-21.8,9.8-21.8,21.8v33.9C55.3,106.7,59.5,107.6,63.5,107.9 M66.7,77.6
		h12.6V64.9H66.7V77.6z"/>
</g>
</svg>
